<svg width="98" height="46" viewBox="0 0 98 46" fill="none" xmlns="http://www.w3.org/2000/svg">
<path d="M10.6545 3.50343V16.4582C10.6545 16.4582 15.2763 16.4582 17.7498 16.2727C19.695 15.9364 20.053 15.7509 20.4111 13.8297L21.1272 11.0158H23.2427L22.8846 17.1654L23.0724 23.466H20.9394L20.4111 21.0057C19.8827 19.2548 19.1667 18.8991 17.7498 18.7309C15.9771 18.5454 10.6545 18.5454 10.6545 18.5454V29.4108C10.6545 31.5002 11.7286 32.3928 14.2022 32.3928H21.6555C23.9587 32.3928 26.2598 32.2075 27.6941 28.889L29.6219 24.6778H31.4121C31.2243 25.5532 30.338 33.2684 30.1677 35.0042C30.1677 35.0042 23.4304 34.8359 20.5988 34.8359H7.82296L0.199318 35.0042V33.1L2.67285 32.5611C4.46304 32.2075 4.99137 31.6856 4.99137 30.2862C4.99137 30.2862 5.17912 25.5532 5.17912 17.6678C5.17912 9.80182 4.99137 5.0667 4.99137 5.0667C4.99137 3.49909 4.46304 3.14548 2.67285 2.79186L0.199318 2.27436V0.353137L7.65267 0.504074H21.8432C24.6748 0.504074 29.4494 -0.000488281 29.4494 -0.000488281C29.4494 -0.000488281 29.2791 2.96436 29.0914 9.97218H27.1462L26.4301 7.51189C25.7315 4.36162 24.6726 2.79401 22.7121 2.79401H11.5583C10.6545 2.79617 10.6545 2.96436 10.6545 3.50343ZM39.3762 4.88557H41.5092V12.247L48.7923 11.8934L48.4343 15.2291L41.3388 14.6901V27.6621C41.3388 31.3341 42.5834 32.7486 44.7164 32.7486C46.6441 32.7486 48.0762 31.6878 48.6044 30.8123L49.661 32.0414C48.6044 34.4845 45.6026 35.7134 42.7535 35.7134C39.2235 35.7134 36.357 33.6242 36.357 29.5984V14.8733H32.126V13.1224C35.6758 12.7688 38.3196 10.6622 39.3762 4.88557ZM54.6409 27.4744L56.0556 30.8102C56.5841 32.2075 57.8283 33.6242 60.66 33.6242C63.6792 33.6242 64.9238 32.0414 64.9238 30.1202C64.9238 24.156 53.0364 25.909 53.0364 17.8554C53.0364 13.3079 56.7542 11.184 61.5462 11.184C63.6792 11.184 66.8689 11.5376 68.4712 12.2449C68.1132 13.9957 67.9256 16.2706 67.9256 18.0236L66.1681 18.1918L64.9238 14.6879C64.5658 13.8297 63.1336 13.1203 61.3761 13.1203C59.243 13.1203 57.1123 13.9957 57.1123 16.2706C57.1123 21.6957 69.3577 20.4817 69.3577 28.5353C69.3577 33.1 65.2818 35.5431 60.302 35.5431C56.5841 35.5431 52.8485 34.1286 52.8485 34.1286C53.2065 32.0392 53.0364 29.7666 52.8485 27.4744H54.6409ZM68.4735 44.2867C69.002 42.3655 69.36 39.9246 69.718 37.6326L71.6632 37.4643L72.3792 41.1366C72.5494 42.0119 73.0779 42.7191 74.4948 42.7191C76.798 42.7191 79.8172 41.3219 82.6641 36.4187C81.4024 33.4364 77.6842 23.8174 74.3069 16.456C73.4207 14.5197 73.2502 14.3494 72.0212 13.9957L71.1172 13.6594V11.8912L76.4551 12.0767L83.0046 11.7231V13.4761L81.4024 13.8297C80.1578 13.9979 79.6448 14.6879 79.6448 15.3973C79.6448 15.5827 79.6448 15.7509 79.815 16.1046C80.1555 17.1654 83.0046 25.0336 85.1377 30.2884C86.8952 26.6163 90.2725 18.3794 90.8007 16.98C90.9886 16.2727 91.1587 16.1046 91.1587 15.5827C91.1587 14.6901 90.6305 14.1682 89.4015 13.8319L88.1395 13.4761V11.7252L93.1193 11.8934L97.7237 11.7252V13.4761L96.8372 14.1661C95.0645 14.8733 94.8769 15.0415 94.176 16.456L86.3819 34.48C81.7604 44.8236 76.9681 45.6992 73.606 45.6992C71.4753 45.7011 69.873 45.1622 68.4735 44.2867Z" fill="#FB6F20"/>
</svg>
