<svg width="153" height="46" viewBox="0 0 153 46" fill="none" xmlns="http://www.w3.org/2000/svg">
<path d="M-6.10352e-05 32.5379V0.673706H5.64387V32.5379H-6.10352e-05Z" fill="#3D3D3F"/>
<path d="M20.0911 9.42151C12.8548 9.42151 7.8472 14.9393 7.8472 21.255C7.8472 28.3036 13.2949 33.1594 20.1473 33.1594C26.6506 33.1594 32.2939 28.393 32.2939 21.2397C32.2939 15.2246 27.6177 9.42151 20.0911 9.42151ZM20.0246 14.8211C23.8115 14.8211 26.599 17.7445 26.599 21.2752C26.599 25.0188 23.5258 27.7497 20.1269 27.7497C16.1106 27.7497 13.5832 24.5928 13.5832 21.2854C13.5832 17.6601 16.4367 14.8211 20.0246 14.8211Z" fill="#3D3D3F"/>
<path d="M46.4743 9.42151C39.2382 9.42151 34.2304 14.9393 34.2304 21.255C34.2304 28.3036 39.6782 33.1594 46.5306 33.1594C53.0339 33.1594 58.6772 28.393 58.6772 21.2397C58.6772 17.0274 56.838 15.1583 56.838 15.1583L58.4021 14.6263V10.0836H50.3862C50.3862 10.0836 48.6485 9.42151 46.4743 9.42151ZM46.4079 14.8211C50.1949 14.8211 52.9824 17.7445 52.9824 21.2752C52.9824 25.0188 49.9092 27.7497 46.5103 27.7497C42.494 27.7497 39.9665 24.5928 39.9665 21.2854C39.9665 17.6601 42.82 14.8211 46.4079 14.8211Z" fill="#3D3D3F"/>
<path d="M52.9425 34.0951C52.9425 37.8387 49.8693 40.59 46.4704 40.59C42.4541 40.59 39.9165 37.4026 39.9165 34.0951H34.1908C34.1908 41.144 39.6386 45.9995 46.4907 45.9995C52.9943 45.9995 58.6376 41.2484 58.6376 34.0951H52.9425Z" fill="#3D3D3F"/>
<path d="M60.938 32.5378V10.0835H66.582V32.5378H60.938Z" fill="#3D3D3F"/>
<path d="M72.0622 32.5375V15.1127H69.0357V10.0832H72.0622V3.18799H77.7061V10.0832H80.8144V15.1127H77.7061V32.5375H72.0622Z" fill="#3D3D3F"/>
<path d="M67.4854 3.70602C67.4854 5.75309 65.8121 7.41254 63.748 7.41254C61.684 7.41254 60.0107 5.75309 60.0107 3.70602C60.0107 1.65898 61.684 -0.000488281 63.748 -0.000488281C65.8121 -0.000488281 67.4854 1.65898 67.4854 3.70602Z" fill="#3D3D3F"/>
<path d="M93.5032 9.40625C86.2326 9.40625 81.5457 14.9269 81.5457 21.4577C81.5457 28.2065 86.2481 33.1744 93.6208 33.1744C100.498 33.1744 103.881 28.9157 103.881 28.9157L100.108 25.1689C100.108 25.1689 97.2596 28.216 93.6923 28.216C90.7186 28.216 88.3411 26.57 87.5114 23.5516H105.098V22.0103C105.098 15.8604 101.508 9.40625 93.5032 9.40625ZM93.3241 14.3343C95.9241 14.3343 98.5831 15.7137 99.1777 19.0089H87.3581C87.8264 16.6926 89.8695 14.3343 93.3241 14.3343Z" fill="#3D3D3F"/>
<path d="M119.215 33.1774C111.924 33.1774 106.956 27.6701 106.956 21.1767C106.956 14.4754 112.571 9.40198 119.192 9.40198C125.592 9.40198 128.868 13.883 128.868 13.883L124.931 17.77C124.931 17.77 122.651 14.8476 119.165 14.8476C115.302 14.8476 112.66 17.7786 112.66 21.2626C112.66 24.9413 115.47 27.7637 119.121 27.7637C122.663 27.7637 124.926 24.846 124.926 24.846L128.902 28.7309C128.902 28.7309 125.658 33.1774 119.215 33.1774Z" fill="#3D3D3F"/>
<path d="M130.956 32.5538V0.592285H136.6V12.3351C136.6 12.3351 138.761 9.40184 143.461 9.40184C149.371 9.40184 152.795 13.7587 152.795 19.3311V32.5538H147.151V20.1771C147.151 16.4334 144.801 14.8803 142.197 14.8803C139.231 14.8803 136.6 16.5545 136.6 20.4668V32.5538H130.956Z" fill="#3D3D3F"/>
</svg>
