<svg width="197" height="46" viewBox="0 0 197 46" fill="none" xmlns="http://www.w3.org/2000/svg">
<path fill-rule="evenodd" clip-rule="evenodd" d="M-6.10352e-05 41.8541C-6.10352e-05 44.3687 1.64413 45.9992 4.17869 45.9992L16.388 45.9995C23.6715 45.9995 29.6296 43.5548 33.6805 39.2752H-6.10352e-05V41.8541ZM16.388 -0.000258283L4.17869 -0.000488281C1.64413 -0.000488281 -6.10352e-05 1.63043 -6.10352e-05 4.14478V6.72375H33.6805C29.6296 2.44417 23.6715 -0.000258283 16.388 -0.000258283ZM27.0431 29.5539C27.0431 31.588 28.3789 32.9077 30.4384 32.9077H37.7544C38.5836 30.8663 39.1408 28.622 39.3999 26.2001H30.4384C28.3789 26.2001 27.0431 27.5196 27.0431 29.5539ZM16.9025 16.4617C16.9025 18.496 18.2383 19.8155 20.2978 19.8155H39.3999C39.1408 17.3936 38.5836 15.1493 37.7544 13.1079H20.2978C18.2383 13.1079 16.9025 14.4273 16.9025 16.4617ZM20.2955 29.5539C20.2955 27.5196 18.9597 26.2001 16.9002 26.2001H-6.10352e-05V32.9077H16.9002C18.9597 32.9077 20.2955 31.5883 20.2955 29.5539ZM10.1549 16.4617C10.1549 14.4273 8.8191 13.1079 6.75965 13.1079H-6.10352e-05V19.8155H6.75965C8.8191 19.8155 10.1549 18.496 10.1549 16.4617Z" fill="#0062FF"/>
<path fill-rule="evenodd" clip-rule="evenodd" d="M85.9203 22.3069C86.4643 19.6819 88.2218 18.3472 90.5317 18.3472C92.8217 18.3472 94.4962 19.7417 95.0302 22.3069H85.9203ZM90.6573 13.7996C84.7759 13.7996 81.1176 18.4727 81.1176 24.1888C81.1176 30.1087 85.0267 34.4996 90.8366 34.4996C94.8435 34.4996 97.2742 32.6567 98.7784 30.3363L95.0379 27.96C94.0974 29.2375 92.5928 29.9126 90.9801 29.9126C88.3416 29.9126 86.575 28.6841 85.9727 26.2274H95.8453C95.8443 26.2305 95.8437 26.2337 95.8427 26.2371L99.4418 26.2581C99.5783 25.6117 99.6588 24.9437 99.6588 24.1888C99.6588 19.2098 96.5747 13.7996 90.6573 13.7996Z" fill="#0062FF"/>
<path fill-rule="evenodd" clip-rule="evenodd" d="M66.0529 29.8995C62.4341 29.8995 60.2587 27.325 60.2587 24.1494C60.2587 20.9738 62.476 18.3995 66.0529 18.3995C69.6298 18.3995 71.847 20.9738 71.847 24.1494C71.847 27.325 69.6716 29.8995 66.0529 29.8995ZM71.4527 16.8387C70.0077 15.1164 67.9562 14.0607 65.4094 14.0607C59.7173 14.0607 55.6234 18.6363 55.6234 24.2801C55.6234 29.9242 59.6784 34.4995 65.4094 34.4995C67.9562 34.4995 70.0077 33.4437 71.4527 31.7215V33.9964H76.4823V6.89954H71.4527V16.8387Z" fill="#0062FF"/>
<path fill-rule="evenodd" clip-rule="evenodd" d="M115.04 23.8098C116.405 24.7565 117.271 26.1759 117.271 28.049C117.271 31.8345 114.699 34.4611 109.892 34.4611C105.368 34.4611 102.942 32.1605 101.976 29.8373L106.129 27.4311C106.129 27.4311 106.688 29.9418 109.818 29.9418C111.755 29.9418 112.352 29.0918 112.352 28.3413C112.352 27.9936 112.24 27.3538 110.861 26.8129C108.092 25.7269 102.738 25.2396 102.738 20.2851C102.738 16.2296 105.941 14.0666 109.892 14.0666C113.587 14.0666 115.96 16.348 116.861 18.1231L112.799 20.4783C112.799 20.4783 112.016 18.5083 109.929 18.5083C107.843 18.5083 107.657 19.7059 107.657 20.0534C107.657 21.0674 108.698 21.4837 110.936 22.1394C112.26 22.5275 113.621 22.8801 115.044 23.8062C115.042 23.8074 115.041 23.8086 115.04 23.8098ZM197 19.3968H192.789V27.4309C192.789 29.9418 195.248 29.4009 197 29.4009V33.92C197 33.92 196.077 34.0746 194.466 34.0746C190.889 34.0746 187.982 32.9933 187.982 27.4309V19.3968H184.74V14.6071H187.982V9.19946H192.789V14.6071H197V19.3968ZM129.221 29.594C131.216 29.594 132.75 28.6077 133.525 26.9897L137.692 29.4663C136.059 32.4343 133.017 34.4995 129.221 34.4995C123.464 34.4995 119.439 29.9341 119.439 24.3024C119.439 18.6705 123.501 14.1051 129.221 14.1051C132.961 14.1051 135.992 16.1365 137.642 19.0652L133.484 21.5982C132.694 20.0014 131.173 19.0105 129.221 19.0105C126.312 19.0105 124.246 21.3798 124.246 24.3024C124.246 27.2248 126.293 29.594 129.221 29.594Z" fill="#0062FF"/>
<path fill-rule="evenodd" clip-rule="evenodd" d="M173.411 29.5414C170.279 29.5414 168.397 27.1187 168.397 24.1303C168.397 21.1419 170.315 18.7194 173.411 18.7194C176.506 18.7194 178.424 21.1419 178.424 24.1303C178.424 27.1187 176.542 29.5414 173.411 29.5414ZM174.008 13.999C179.293 13.999 183.094 18.5351 183.094 24.1303C183.094 29.7258 179.329 34.2615 174.008 34.2615C171.643 34.2615 169.738 33.215 168.397 31.5075V41.3995H163.727V14.5364H168.397V16.7531C169.738 15.0457 171.643 13.999 174.008 13.999ZM154.749 33.7625V14.5746H159.419V33.7625H154.749ZM146.046 17.8523C146.947 15.5271 148.784 14.1971 151.549 14.1912V19.7173C148.307 19.3921 145.965 21.101 146.05 25.1377C146.049 25.1348 146.047 25.1317 146.046 25.1286V33.7625H141.376V14.5749H146.046V17.8523ZM154.749 12.014V6.89954H159.573V12.014H154.749Z" fill="#0062FF"/>
</svg>
