<svg width="155" height="46" viewBox="0 0 155 46" fill="none" xmlns="http://www.w3.org/2000/svg">
<path d="M23.2497 0.0756836C10.4486 0.0756836 0.0708466 10.3416 0.0708466 23.005C0.0708466 35.6691 10.4486 45.9341 23.2497 45.9341C36.0522 45.9341 46.4288 35.6691 46.4288 23.005C46.4288 10.3424 36.0522 0.076779 23.2494 0.076779L23.2497 0.0756836ZM33.8793 33.1464C33.4644 33.8201 32.5731 34.0335 31.8921 33.6201C26.4499 30.3316 19.5989 29.5869 11.5306 31.4104C10.7531 31.5857 9.97812 31.1038 9.80097 30.3344C9.62301 29.565 10.1082 28.7983 10.8876 28.6231C19.7171 26.6275 27.2908 27.4867 33.4004 31.1804C34.0815 31.5939 34.2975 32.4727 33.8793 33.1464ZM36.7165 26.903C36.1933 27.7441 35.0806 28.0097 34.231 27.4922C28.0005 23.7038 18.5031 22.6067 11.1337 24.8196C10.1779 25.1052 9.16851 24.5723 8.87843 23.6285C8.59058 22.683 9.1295 21.6864 10.0836 21.3989C18.5014 18.8722 28.9664 20.0961 36.1213 24.4456C36.9712 24.9631 37.2396 26.0638 36.7165 26.9033V26.903ZM36.9599 20.4017C29.4896 16.0122 17.1643 15.6086 10.0318 17.7501C8.88647 18.0937 7.67524 17.4541 7.32817 16.3211C6.98107 15.1875 7.6271 13.9901 8.77326 13.6457C16.9609 11.1869 30.5718 11.6619 39.1726 16.7129C40.2049 17.3177 40.5427 18.6339 39.9311 19.6517C39.3221 20.6708 37.9881 21.0068 36.9612 20.4017H36.9599ZM63.133 21.2428C59.1304 20.2987 58.419 19.6361 58.419 18.2438C58.419 16.9284 59.6703 16.0432 61.5329 16.0432C63.3377 16.0432 65.1257 16.7154 67.0022 18.0992C67.0577 18.1411 67.1297 18.1578 67.1988 18.1468C67.2708 18.1364 67.3315 18.0984 67.3732 18.0412L69.3272 15.3162C69.4076 15.2039 69.3853 15.0492 69.2774 14.9635C67.0438 13.1912 64.5306 12.3295 61.5911 12.3295C57.2704 12.3295 54.2508 14.8948 54.2508 18.5652C54.2508 22.5012 56.8555 23.8949 61.356 24.9707C65.1838 25.8434 65.8316 26.5744 65.8316 27.881C65.8316 29.3295 64.5251 30.2303 62.4216 30.2303C60.0853 30.2303 58.1785 29.45 56.0472 27.6264C55.9946 27.5799 55.9226 27.5607 55.8561 27.5634C55.7844 27.5689 55.7204 27.6017 55.6762 27.6538L53.4842 30.2331C53.3928 30.3426 53.4038 30.5014 53.5091 30.5945C55.9891 32.7851 59.039 33.9405 62.3328 33.9405C66.9886 33.9405 69.9972 31.4242 69.9972 27.5278C70.0053 24.2402 68.0155 22.4194 63.1411 21.2464L63.133 21.2428ZM80.5317 17.3383C78.5138 17.3383 76.8586 18.1247 75.4913 19.736V17.9223C75.4913 17.7791 75.3751 17.6625 75.2311 17.6625H71.6467C71.503 17.6625 71.3867 17.7791 71.3867 17.9223V38.0751C71.3867 38.2173 71.503 38.3351 71.6467 38.3351H75.2311C75.3751 38.3351 75.4913 38.2173 75.4913 38.0751V31.7144C76.8586 33.2285 78.5138 33.9706 80.5317 33.9706C84.2821 33.9706 88.0796 31.1147 88.0796 25.6552C88.0851 20.1947 84.2876 17.338 80.5343 17.338L80.5317 17.3383ZM83.9111 25.6552C83.9111 28.4341 82.1812 30.3754 79.7012 30.3754C77.2519 30.3754 75.4028 28.3465 75.4028 25.6552C75.4028 22.9637 77.2519 20.9353 79.7012 20.9353C82.1399 20.935 83.9111 22.9196 83.9111 25.655V25.6552ZM97.8084 17.3383C92.9786 17.3383 89.1949 21.0172 89.1949 25.7147C89.1949 30.3617 92.9537 34.0006 97.7503 34.0006C102.597 34.0006 106.392 30.3344 106.392 25.6552C106.392 20.992 102.622 17.3388 97.8084 17.3388V17.3383ZM97.8084 30.4028C95.2399 30.4028 93.3024 28.3602 93.3024 25.6539C93.3024 22.9352 95.1737 20.9624 97.7503 20.9624C100.336 20.9624 102.284 23.0042 102.284 25.7133C102.284 28.4314 100.402 30.4028 97.8084 30.4028ZM116.705 17.6625H112.76V13.6742C112.76 13.5312 112.644 13.4146 112.5 13.4146H108.916C108.772 13.4146 108.653 13.5312 108.653 13.6742V17.6625H106.931C106.787 17.6625 106.671 17.7791 106.671 17.9223V20.969C106.671 21.1119 106.787 21.2288 106.931 21.2288H108.653V29.1132C108.653 32.2976 110.256 33.9131 113.419 33.9131C114.703 33.9131 115.769 33.6502 116.774 33.086C116.857 33.0423 116.907 32.9547 116.907 32.8618V29.9592C116.907 29.8716 116.86 29.7867 116.782 29.7402C116.705 29.6909 116.608 29.6882 116.528 29.7292C115.838 30.0715 115.171 30.2303 114.424 30.2303C113.275 30.2303 112.76 29.7128 112.76 28.5574V21.2302H116.705C116.849 21.2302 116.965 21.1136 116.965 20.9704V17.9239C116.97 17.7807 116.854 17.6641 116.707 17.6641L116.705 17.6625ZM130.444 17.6781V17.1882C130.444 15.7472 131.004 15.1045 132.255 15.1045C133.002 15.1045 133.602 15.2513 134.275 15.4731C134.358 15.4988 134.444 15.4859 134.51 15.4369C134.58 15.3879 134.618 15.3094 134.618 15.2261V12.2389C134.618 12.1247 134.546 12.0236 134.433 11.9899C133.724 11.781 132.816 11.5667 131.455 11.5667C128.147 11.5667 126.395 13.4105 126.395 16.8969V17.6471H124.673C124.529 17.6471 124.41 17.7638 124.41 17.9067V20.969C124.41 21.1119 124.529 21.2288 124.673 21.2288H126.395V33.3873C126.395 33.5326 126.514 33.6476 126.658 33.6476H130.24C130.386 33.6476 130.502 33.5326 130.502 33.3873V21.2297H133.849L138.975 33.3873C138.394 34.6634 137.821 34.918 137.04 34.918C136.409 34.918 135.742 34.7318 135.064 34.3622C135 34.3293 134.923 34.3239 134.856 34.343C134.787 34.3676 134.729 34.4168 134.701 34.4826L133.486 37.1193C133.428 37.2452 133.478 37.3905 133.6 37.456C134.867 38.1352 136.01 38.4255 137.425 38.4255C140.071 38.4255 141.535 37.2043 142.822 33.9239L149.039 18.0329C149.072 17.953 149.061 17.8626 149.011 17.7917C148.964 17.7213 148.884 17.6789 148.798 17.6789H145.067C144.954 17.6789 144.854 17.7493 144.818 17.853L140.995 28.6504L136.81 17.8459C136.772 17.7454 136.675 17.6789 136.567 17.6789H130.444V17.6781ZM122.479 17.6625H118.894C118.75 17.6625 118.631 17.7791 118.631 17.9223V33.3873C118.631 33.5326 118.75 33.6476 118.894 33.6476H122.479C122.622 33.6476 122.741 33.5326 122.741 33.3873V17.9234C122.741 17.7802 122.625 17.6636 122.479 17.6636V17.6625ZM120.707 10.6204C119.287 10.6204 118.136 11.7572 118.136 13.1616C118.136 14.5668 119.287 15.705 120.707 15.705C122.127 15.705 123.276 14.5668 123.276 13.1616C123.276 11.7575 122.124 10.6204 120.707 10.6204ZM152.1 22.6351C150.683 22.6351 149.578 21.5084 149.578 20.1402C149.578 18.7719 150.697 17.6324 152.114 17.6324C153.531 17.6324 154.635 18.7588 154.635 20.1259C154.635 21.4942 153.517 22.6351 152.1 22.6351ZM152.114 17.8804C150.821 17.8804 149.844 18.8963 149.844 20.1402C149.844 21.3835 150.816 22.3857 152.1 22.3857C153.393 22.3857 154.37 21.3707 154.37 20.1259C154.37 18.8826 153.398 17.8804 152.114 17.8804ZM152.673 20.3825L153.387 21.3704H152.784L152.142 20.4641H151.591V21.3704H151.087V18.7517H152.266C152.883 18.7517 153.287 19.063 153.287 19.5871C153.29 20.0164 153.038 20.2787 152.676 20.3825H152.673ZM152.247 19.201H151.591V20.0293H152.247C152.573 20.0293 152.77 19.8707 152.77 19.6147C152.77 19.3453 152.573 19.201 152.247 19.201Z" fill="#1ED760"/>
</svg>
