<svg width="158" height="40" viewBox="0 0 158 40" fill="none" xmlns="http://www.w3.org/2000/svg">
<path d="M50.5742 31.3379L52.5401 26.8025C54.6643 28.3773 57.4865 29.1962 60.2768 29.1962C62.3378 29.1962 63.6379 28.4087 63.6379 27.2119C63.606 23.8734 51.3033 26.4875 51.2082 18.1096C51.1766 13.8576 54.9814 10.582 60.3719 10.582C63.5744 10.582 66.7769 11.3694 69.0599 13.1647L67.2207 17.7946C65.1281 16.4718 62.528 15.5269 60.0548 15.5269C58.3741 15.5269 57.2645 16.3143 57.2645 17.3222C57.2961 20.5978 69.6939 18.8025 69.8209 26.8025C69.8209 31.149 66.1111 34.204 60.7841 34.204C56.8839 34.204 53.301 33.2906 50.5742 31.3379ZM126.007 25.1647C125.024 26.8655 123.185 28.0309 121.061 28.0309C117.922 28.0309 115.385 25.5112 115.385 22.3931C115.385 19.2749 117.922 16.7552 121.061 16.7552C123.185 16.7552 125.024 17.9206 126.007 19.6214L131.429 16.6293C129.4 13.0387 125.5 10.582 121.061 10.582C114.497 10.582 109.17 15.8734 109.17 22.3931C109.17 28.9129 114.497 34.204 121.061 34.204C125.532 34.204 129.4 31.779 131.429 28.1567L126.007 25.1647ZM72.5477 0.786743H79.3333V33.7631H72.5477V0.786743ZM134.093 0.786743V33.7631H140.878V23.8734L148.932 33.7631H157.62L147.378 22.0151L156.859 11.0545H148.552L140.878 20.1568V0.786743H134.093ZM99.4994 25.2277C98.5164 26.834 96.4871 28.0309 94.204 28.0309C91.065 28.0309 88.5283 25.5112 88.5283 22.3931C88.5283 19.2749 91.065 16.7552 94.204 16.7552C96.4871 16.7552 98.5164 18.0151 99.4994 19.6529V25.2277ZM99.4994 11.0545V13.7316C98.3895 11.8734 95.6311 10.582 92.7457 10.582C86.7845 10.582 82.0917 15.8104 82.0917 22.3616C82.0917 28.9129 86.7845 34.204 92.7457 34.204C95.6311 34.204 98.3895 32.9129 99.4994 31.0545V33.7317H106.285V11.0545H99.4994Z" fill="#3D3D3F"/>
<path d="M8.62455 25.196C8.62455 27.4951 6.75378 29.3534 4.43912 29.3534C2.12443 29.3534 0.253662 27.4951 0.253662 25.196C0.253662 22.8967 2.12443 21.0385 4.43912 21.0385H8.62455V25.196ZM10.7173 25.196C10.7173 22.8967 12.588 21.0385 14.9027 21.0385C17.2174 21.0385 19.0882 22.8967 19.0882 25.196V35.5895C19.0882 37.8889 17.2174 39.747 14.9027 39.747C12.588 39.747 10.7173 37.8889 10.7173 35.5895V25.196Z" fill="#E01E5A"/>
<path d="M14.9027 8.5033C12.5881 8.5033 10.7173 6.64505 10.7173 4.34583C10.7173 2.04662 12.5881 0.188354 14.9027 0.188354C17.2174 0.188354 19.0882 2.04662 19.0882 4.34583V8.5033H14.9027ZM14.9027 10.6136C17.2174 10.6136 19.0882 12.4718 19.0882 14.771C19.0882 17.0702 17.2174 18.9285 14.9027 18.9285H4.40743C2.09275 18.9285 0.221985 17.0702 0.221985 14.771C0.221985 12.4718 2.09275 10.6136 4.40743 10.6136H14.9027Z" fill="#36C5F0"/>
<path d="M31.6763 14.771C31.6763 12.4718 33.5471 10.6136 35.8618 10.6136C38.1764 10.6136 40.0472 12.4718 40.0472 14.771C40.0472 17.0702 38.1764 18.9285 35.8618 18.9285H31.6763V14.771ZM29.5834 14.771C29.5834 17.0702 27.7128 18.9285 25.3981 18.9285C23.0834 18.9285 21.2126 17.0702 21.2126 14.771V4.34583C21.2126 2.04662 23.0834 0.188354 25.3981 0.188354C27.7128 0.188354 29.5834 2.04662 29.5834 4.34583V14.771Z" fill="#2EB67D"/>
<path d="M25.3981 31.4323C27.7128 31.4323 29.5834 33.2903 29.5834 35.5895C29.5834 37.8889 27.7128 39.747 25.3981 39.747C23.0834 39.747 21.2126 37.8889 21.2126 35.5895V31.4323H25.3981ZM25.3981 29.3534C23.0834 29.3534 21.2126 27.4951 21.2126 25.196C21.2126 22.8967 23.0834 21.0385 25.3981 21.0385H35.8934C38.208 21.0385 40.0788 22.8967 40.0788 25.196C40.0788 27.4951 38.208 29.3534 35.8934 29.3534H25.3981Z" fill="#ECB22E"/>
</svg>
