<svg width="72" height="72" viewBox="0 0 72 72" fill="none" xmlns="http://www.w3.org/2000/svg">
<circle cx="35.9723" cy="35.5115" r="35.5193" fill="#BC5C56" fill-opacity="0.06"/>
<path d="M55.9413 35.018C55.9404 34.6123 55.7297 34.2359 55.3843 34.0229L51.3192 31.517L55.3886 28.9841C55.7318 28.7705 55.9406 28.3951 55.9413 27.991C55.9419 27.5868 55.7342 27.2108 55.3916 26.9962L36.5635 15.1993C36.183 14.9609 35.6996 14.9609 35.3191 15.1993L16.491 26.9962C16.1485 27.2108 15.9408 27.5868 15.9413 27.991C15.942 28.3952 16.1508 28.7706 16.494 28.9841L20.5355 31.4996L16.4922 34.0268C16.1492 34.2412 15.941 34.6172 15.9414 35.0217C15.9418 35.4261 16.1507 35.8018 16.4941 36.0155L20.5356 38.531L16.4922 41.0581C16.1498 41.2721 15.9417 41.6474 15.9414 42.0512C15.9412 42.455 16.1489 42.8305 16.4911 43.0449L35.3192 54.8417C35.5095 54.9609 35.7254 55.0205 35.9413 55.0205C36.1573 55.0205 36.3733 54.9609 36.5635 54.8417L55.3916 43.0449C55.7349 42.8298 55.9428 42.4526 55.9413 42.0475C55.9398 41.6424 55.7292 41.2668 55.3843 41.0542L51.3192 38.5483L55.3886 36.0154C55.7331 35.8011 55.9421 35.4237 55.9413 35.018ZM19.3257 27.9861L35.9413 17.5754L52.557 27.9861C52.3973 28.0855 36.4175 38.0314 35.9413 38.3278L19.3257 27.9861ZM52.5493 42.0599L35.9413 52.4658L19.3224 42.0531L22.7512 39.91L35.3221 47.7342C35.5117 47.8522 35.7265 47.9112 35.9413 47.9112C36.1562 47.9112 36.371 47.8522 36.5606 47.7342L49.0968 39.9316L52.5493 42.0599ZM35.9413 45.359L19.3277 35.0186L22.7512 32.8788L35.3221 40.703C35.5117 40.821 35.7265 40.8799 35.9413 40.8799C36.1562 40.8799 36.371 40.821 36.5606 40.703L49.0968 32.9004L52.544 35.0254C52.4488 35.0846 36.3812 45.0852 35.9413 45.359Z" fill="#FD695A" stroke="#FD695A" stroke-width="0.5"/>
</svg>
