<svg width="72" height="72" viewBox="0 0 72 72" fill="none" xmlns="http://www.w3.org/2000/svg">
<circle cx="35.5192" cy="35.5188" r="35.5193" fill="#68CDFD" fill-opacity="0.08"/>
<path d="M28.2571 38.9026L28.257 38.9025C28.076 38.7482 27.9719 38.5227 27.9719 38.2847C27.9719 38.0466 28.0766 37.8214 28.2568 37.6674L28.2571 37.6671L31.8893 34.5743L31.8894 34.5742L32.0515 34.7645L28.2571 38.9026ZM28.2571 38.9026L31.8894 41.9955C31.8894 41.9955 31.8894 41.9955 31.8894 41.9955C32.0417 42.1252 32.2291 42.1892 32.4149 42.1892C32.6438 42.1892 32.8724 42.0924 33.0331 41.9036L33.0331 41.9036M28.2571 38.9026L33.0331 41.9036M33.0331 41.9036C33.3233 41.5627 33.2826 41.0506 32.9412 40.76C32.9412 40.76 32.9412 40.76 32.9412 40.76L30.0346 38.2847L32.9411 35.8095C32.9411 35.8095 32.9411 35.8095 32.9411 35.8094L33.0331 41.9036Z" fill="#53C8FF" stroke="#53C8FF" stroke-width="0.5"/>
<path d="M41.9654 38.2847L39.0587 40.76L39.0586 40.7601C38.7179 41.0505 38.6765 41.5624 38.9671 41.9036C38.9672 41.9036 38.9672 41.9037 38.9673 41.9038L39.1575 41.7416L41.9654 38.2847ZM41.9654 38.2847L42.1582 38.1205L39.2208 35.619C38.9849 35.4182 38.9564 35.064 39.1575 34.8278C39.3583 34.5919 39.7129 34.5634 39.9485 34.7645L40.1105 34.5742L40.1107 34.5743C40.1107 34.5743 40.1107 34.5744 40.1108 34.5744L43.7428 37.6671L43.7429 37.6672C43.9239 37.8214 44.0281 38.0469 44.0281 38.2847C44.0281 38.5227 43.9239 38.7482 43.7429 38.9025L43.7428 38.9026L40.1105 41.9955M41.9654 38.2847L39.0588 35.8094L39.2207 35.6192L39.0587 35.8094C38.7177 35.519 38.6766 35.007 38.9672 34.6657L39.1574 34.8277L38.9672 34.6657L40.1105 41.9955M40.1105 41.9955C40.1105 41.9955 40.1105 41.9955 40.1105 41.9955L40.1105 41.9955Z" fill="#53C8FF" stroke="#53C8FF" stroke-width="0.5"/>
<path d="M34.5459 44.4915L34.5465 44.4916C34.6018 44.5031 34.6577 44.5091 34.7139 44.5091C35.0895 44.5091 35.4264 44.2471 35.507 43.8649L35.5071 43.8649L37.7708 33.1168L37.7708 33.1167C37.8632 32.6781 37.5825 32.248 37.1442 32.1556L37.1442 32.1556C36.7055 32.0632 36.2754 32.3439 36.183 32.7822L36.183 32.7822L33.9193 43.5303C33.8269 43.9686 34.1076 44.3991 34.5459 44.4915Z" fill="#53C8FF" stroke="#53C8FF" stroke-width="0.5"/>
<path d="M22.7688 50.3646H49.2311C51.4471 50.3646 53.2499 48.5622 53.2499 46.3458V23.8861C53.2499 21.67 51.4472 19.8672 49.2311 19.8672H22.7688C20.5527 19.8672 18.7499 21.67 18.7499 23.8861V46.3458C18.7499 48.5622 20.5527 50.3646 22.7688 50.3646ZM20.3726 23.8861C20.3726 22.5651 21.4478 21.4898 22.7688 21.4898H49.2311C50.5521 21.4898 51.6273 22.5651 51.6273 23.8861V46.3458C51.6273 47.6668 50.5521 48.742 49.2311 48.742H22.7688C21.4478 48.742 20.3726 47.6668 20.3726 46.3458V23.8861Z" fill="#53C8FF" stroke="#53C8FF" stroke-width="0.5"/>
<path d="M19.5613 29.3555H52.4386C52.8868 29.3555 53.2499 28.9924 53.2499 28.5442C53.2499 28.0965 52.8869 27.7329 52.4386 27.7329H19.5613C19.113 27.7329 18.7499 28.0965 18.7499 28.5442C18.7499 28.9924 19.1131 29.3555 19.5613 29.3555Z" fill="#53C8FF" stroke="#53C8FF" stroke-width="0.5"/>
<path d="M29.8768 26.4196C28.8977 26.4196 28.1005 25.6224 28.1005 24.6432C28.1005 23.6637 28.8977 22.8668 29.8768 22.8668C30.8563 22.8668 31.6532 23.6637 31.6532 24.6432C31.6532 25.6224 30.8563 26.4196 29.8768 26.4196ZM29.8768 23.9895C29.5166 23.9895 29.2231 24.2827 29.2231 24.6432C29.2231 25.0037 29.5166 25.2969 29.8768 25.2969C30.2374 25.2969 30.5306 25.0037 30.5306 24.6432C30.5306 24.2827 30.2374 23.9895 29.8768 23.9895Z" fill="#53C8FF"/>
<path d="M24.4191 26.4023C23.4396 26.4023 22.6427 25.6055 22.6427 24.626C22.6427 23.6465 23.4396 22.8496 24.4191 22.8496C25.3986 22.8496 26.1954 23.6465 26.1954 24.626C26.1954 25.6055 25.3986 26.4023 24.4191 26.4023ZM24.4191 23.9723C24.0588 23.9723 23.7653 24.2658 23.7653 24.626C23.7653 24.9865 24.0588 25.2797 24.4191 25.2797C24.7796 25.2797 25.0728 24.9865 25.0728 24.626C25.0728 24.2658 24.7796 23.9723 24.4191 23.9723Z" fill="#53C8FF"/>
<path d="M35.335 26.4366C34.3559 26.4366 33.559 25.6397 33.559 24.6602C33.559 23.681 34.3559 22.8842 35.335 22.8842C36.3145 22.8842 37.1114 23.681 37.1114 24.6602C37.1114 25.6397 36.3145 26.4366 35.335 26.4366ZM35.335 24.0065C34.9748 24.0065 34.6816 24.2997 34.6816 24.6602C34.6816 25.0207 34.9748 25.3139 35.335 25.3139C35.6956 25.3139 35.9888 25.0207 35.9888 24.6602C35.9888 24.2997 35.6956 24.0065 35.335 24.0065Z" fill="#53C8FF"/>
</svg>
