<svg width="72" height="72" viewBox="0 0 72 72" fill="none" xmlns="http://www.w3.org/2000/svg">
    <circle cx="35.5192" cy="36.4504" r="35.5193" fill="#E9F6EE"/>
    <g clip-path="url(#clip0_2_210)">
    <path d="M53.0635 26.004L55.0035 24.0643C55.3258 23.7418 55.432 23.2614 55.2755 22.8333C55.1189 22.4048 54.728 22.1063 54.2733 22.0679L50.6743 21.7642L50.3707 18.1653C50.3325 17.7109 50.0338 17.3199 49.6056 17.1634C49.1774 17.0065 48.6971 17.1127 48.3745 17.4353L46.4345 19.375C43.2973 17.4515 39.7103 16.4386 35.9999 16.4386C30.6578 16.4386 25.6353 18.519 21.8578 22.2964C18.0803 26.0739 15.9999 31.0965 15.9999 36.4386C15.9999 41.7807 18.0803 46.8033 21.8578 50.5807C25.6353 54.3582 30.6578 56.4386 35.9999 56.4386C41.342 56.4386 46.3646 54.3582 50.1421 50.5807C53.9196 46.8033 55.9999 41.7807 55.9999 36.4386C55.9999 32.7283 54.9871 29.1415 53.0635 26.004ZM48.4218 22.9474C48.47 23.5168 48.9217 23.9685 49.4911 24.0167L51.5618 24.1913L48.759 26.994L45.7024 26.7361L45.4445 23.6795L48.2473 20.8768L48.4218 22.9474ZM39.9843 36.4386C39.9843 38.6356 38.1969 40.423 35.9999 40.423C33.803 40.423 32.0156 38.6356 32.0156 36.4386C32.0156 34.2416 33.803 32.4542 35.9999 32.4542C36.6729 32.4542 37.3067 32.6224 37.863 32.9181L35.1714 35.61C34.7136 36.0675 34.7136 36.8094 35.1714 37.2672C35.4 37.496 35.7 37.6105 35.9999 37.6105C36.2999 37.6105 36.5999 37.496 36.8285 37.2672L39.5204 34.5755C39.8162 35.1318 39.9843 35.7657 39.9843 36.4386ZM39.5665 31.2146C38.5503 30.5188 37.322 30.1105 35.9999 30.1105C32.5106 30.1105 29.6718 32.9492 29.6718 36.4386C29.6718 39.928 32.5106 42.7667 35.9999 42.7667C39.4893 42.7667 42.3281 39.928 42.3281 36.4386C42.3281 35.1166 41.9197 33.8882 41.2239 32.872L44.5699 29.5261C46.0985 31.4175 47.0156 33.8229 47.0156 36.4386C47.0156 42.5125 42.0739 47.4542 35.9999 47.4542C29.926 47.4542 24.9843 42.5125 24.9843 36.4386C24.9843 30.3647 29.926 25.423 35.9999 25.423C38.6156 25.423 41.021 26.34 42.9125 27.8687L39.5665 31.2146ZM48.4847 48.9233C45.15 52.2583 40.7161 54.0948 35.9999 54.0948C31.2838 54.0948 26.8499 52.2583 23.5152 48.9233C20.1802 45.5887 18.3437 41.1548 18.3437 36.4386C18.3437 31.7224 20.1802 27.2885 23.5152 23.9539C26.8499 20.6189 31.2838 18.7823 35.9999 18.7823C39.0853 18.7823 42.0739 19.5749 44.7243 21.0852L43.4026 22.4069C43.189 22.6205 43.0672 22.9068 43.0596 23.2056C43.0587 23.2483 43.0599 23.291 43.0632 23.334L43.221 25.2039C41.1376 23.8599 38.6583 23.0792 35.9999 23.0792C28.6336 23.0792 22.6406 29.0723 22.6406 36.4386C22.6406 43.8049 28.6336 49.798 35.9999 49.798C43.3663 49.798 49.3593 43.8049 49.3593 36.4386C49.3593 33.7802 48.5787 31.301 47.2347 29.2175L49.1045 29.3753C49.1375 29.3777 49.1704 29.3793 49.2031 29.3793C49.2086 29.3793 49.2144 29.3787 49.2198 29.3784C49.2354 29.3784 49.2507 29.3771 49.2662 29.3762C49.2916 29.3747 49.3172 29.3732 49.3422 29.3701C49.3578 29.368 49.3734 29.3655 49.3889 29.3631C49.4136 29.3591 49.438 29.3546 49.4625 29.3491C49.478 29.3454 49.4933 29.3414 49.5085 29.3375C49.5323 29.3311 49.5558 29.3237 49.5793 29.3158C49.5946 29.3106 49.6096 29.3054 49.6245 29.2996C49.6474 29.2908 49.67 29.281 49.6926 29.2703C49.7069 29.2639 49.7213 29.2575 49.7356 29.2502C49.7582 29.2386 49.7802 29.2258 49.8018 29.213C49.8149 29.205 49.8281 29.1977 49.8409 29.1898C49.8641 29.1745 49.8864 29.158 49.9086 29.1412C49.919 29.1333 49.9297 29.1263 49.9398 29.118C49.9715 29.0924 50.0023 29.0652 50.0316 29.0359L51.3533 27.7142C52.8636 30.3647 53.6562 33.3533 53.6562 36.4386C53.6562 41.1548 51.8196 45.5887 48.4847 48.9233Z" fill="#34D27B"/>
    </g>
    <defs>
    <clipPath id="clip0_2_210">
    <rect width="40" height="40" fill="white" transform="translate(15.9999 16.4386)"/>
    </clipPath>
    </defs>
    </svg>
    