<svg width="72" height="72" viewBox="0 0 72 72" fill="none" xmlns="http://www.w3.org/2000/svg">
<circle cx="35.5192" cy="36.4504" r="35.5193" fill="#7879F1" fill-opacity="0.06"/>
<g clip-path="url(#clip0_2_265)">
<path d="M51.8864 54.9311H16.1132C15.4984 54.9311 14.9999 54.4327 14.9999 53.8179C14.9999 53.203 15.4984 52.7046 16.1132 52.7046H51.8864C52.5012 52.7046 52.9996 53.203 52.9996 53.8179C52.9996 54.4327 52.5012 54.9311 51.8864 54.9311Z" fill="#7879F1"/>
<path d="M22.8669 54.9312H18.4138C17.799 54.9312 17.3005 54.4327 17.3005 53.8179V45.6539C17.3005 44.6308 18.1329 43.7985 19.156 43.7985H22.1247C23.1478 43.7985 23.9801 44.6308 23.9801 45.6539V53.8179C23.9801 54.4327 23.4817 54.9312 22.8669 54.9312ZM19.5271 52.7047H21.7536V46.025H19.5271V52.7047ZM22.1247 46.025H22.1254H22.1247Z" fill="#7879F1"/>
<path d="M31.7731 54.9312H27.32C26.7051 54.9312 26.2067 54.4327 26.2067 53.8179V42.982C26.2067 41.9589 27.0391 41.1266 28.0622 41.1266H31.0309C32.054 41.1266 32.8863 41.9589 32.8863 42.982V53.8179C32.8863 54.4327 32.3879 54.9312 31.7731 54.9312ZM28.4332 52.7046H30.6598V43.3531H28.4332V52.7046ZM31.0309 43.3531H31.0316H31.0309Z" fill="#7879F1"/>
<path d="M40.6792 54.9311H36.2262C35.6113 54.9311 35.1129 54.4327 35.1129 53.8179V38.9C35.1129 37.8769 35.9452 37.0446 36.9683 37.0446H39.9371C40.9602 37.0446 41.7925 37.8769 41.7925 38.9V53.8179C41.7925 54.4327 41.2941 54.9311 40.6792 54.9311ZM37.3394 52.7046H39.566V39.2711H37.3394V52.7046ZM39.9371 39.2711H39.9378H39.9371Z" fill="#7879F1"/>
<path d="M49.5854 54.9312H45.1323C44.5175 54.9312 44.0191 54.4328 44.0191 53.8179V31.4783C44.0191 30.4552 44.8514 29.6228 45.8745 29.6228H48.8433C49.8664 29.6228 50.6987 30.4552 50.6987 31.4783V53.8179C50.6987 54.4328 50.2003 54.9312 49.5854 54.9312ZM46.2456 52.7047H48.4722V31.8493H46.2456V52.7047ZM48.8433 31.8493H48.844H48.8433Z" fill="#7879F1"/>
<path d="M16.1132 40.8526C15.4984 40.8526 14.9999 40.3542 14.9999 39.7393C14.9999 39.1245 15.4984 38.6261 16.1132 38.6261C22.6597 38.6261 29.7875 36.2422 36.1834 31.9136C42.0675 27.9314 46.7561 22.7109 49.0471 17.5906C49.2982 17.0294 49.9568 16.778 50.5179 17.0292C51.0792 17.2803 51.3306 17.9388 51.0794 18.5C48.6238 23.9882 43.6493 29.5494 37.4313 33.7575C30.6709 38.3328 23.0999 40.8526 16.1132 40.8526Z" fill="#7879F1"/>
<path d="M51.8854 25.9618C51.3938 25.9618 50.944 25.6338 50.8108 25.1363L49.2759 19.4081L43.5477 20.943C42.9536 21.1023 42.3433 20.7498 42.1842 20.1559C42.0251 19.562 42.3775 18.9515 42.9714 18.7924L49.775 16.9694C50.3691 16.8102 50.9793 17.1627 51.1384 17.7565L52.9614 24.5601C53.1206 25.154 52.7682 25.7645 52.1743 25.9236C52.0777 25.9494 51.9808 25.9618 51.8854 25.9618Z" fill="#7879F1"/>
</g>
<defs>
<clipPath id="clip0_2_265">
<rect width="38" height="38" fill="white" transform="translate(14.9999 16.9312)"/>
</clipPath>
</defs>
</svg>
